<svg id="Layer_1" data-name="Layer 1" xmlns="http://www.w3.org/2000/svg" viewBox="0 0 331 144.1"><defs><style>.cls-1{fill:#fff;}</style></defs><title>idée_logo</title><path class="cls-1" d="M172.5,18V160.1H158.2l-5.2-7a49.17,49.17,0,0,1-11.6,6.5,36,36,0,0,1-12.9,2.4c-13.5,0-24.2-3.9-32.2-11.8s-12-19-12-33.5,4.1-25.8,12.2-33.9,19.2-12.3,33.1-12.3a34.31,34.31,0,0,1,14.9,3.6V25.9ZM118,133.5c3.2,4.1,7.7,6.2,13.4,6.2,3.9,0,8.2-1.7,12.9-5V97.6a23.31,23.31,0,0,0-13.6-4.5A15,15,0,0,0,118,99.5c-3.2,4.3-4.8,10-4.8,17C113.2,123.8,114.8,129.4,118,133.5Z" transform="translate(-41.4 -18)"/><path class="cls-1" d="M273.7,124.3H218c2.6,10.1,10.3,15.2,22.9,15.2a50.16,50.16,0,0,0,24.5-6.8l7.9,19.5a48.68,48.68,0,0,1-15,7.2,66.4,66.4,0,0,1-19.4,2.7q-23.85,0-37.5-12c-9.1-8-13.7-19.1-13.7-33.3,0-9.3,1.9-17.5,5.7-24.4a39.39,39.39,0,0,1,16-16.1c6.9-3.8,14.7-5.6,23.6-5.6s16.3,2,22.4,6.1a37.54,37.54,0,0,1,13.7,16.3,56.06,56.06,0,0,1,4.6,22.9v8.3Zm-56.1-15.9H247a20.68,20.68,0,0,0-4.7-10.7,12.82,12.82,0,0,0-9.9-4,13.27,13.27,0,0,0-9.9,4A17,17,0,0,0,217.6,108.4Z" transform="translate(-41.4 -18)"/><path class="cls-1" d="M372.4,124.3H316.7c2.6,10.1,10.3,15.2,22.9,15.2a50.16,50.16,0,0,0,24.5-6.8l7.9,19.5a48.68,48.68,0,0,1-15,7.2,66.4,66.4,0,0,1-19.4,2.7q-23.85,0-37.5-12c-9.1-8-13.7-19.1-13.7-33.3,0-9.3,1.9-17.5,5.7-24.4a39.39,39.39,0,0,1,16-16.1c6.9-3.8,14.7-5.6,23.6-5.6s16.3,2,22.4,6.1a37.54,37.54,0,0,1,13.7,16.3,56.06,56.06,0,0,1,4.6,22.9v8.3Zm-56.1-15.9h29.4A20.68,20.68,0,0,0,341,97.7a12.82,12.82,0,0,0-9.9-4,13.27,13.27,0,0,0-9.9,4A17,17,0,0,0,316.3,108.4Z" transform="translate(-41.4 -18)"/><path class="cls-1" d="M251.5,22a13.63,13.63,0,0,1,4,11.1,18.81,18.81,0,0,1-5.9,12.1c-4.8,4.8-11.4,7.9-19.9,9.4a45.79,45.79,0,0,1-23.9-2l4.9-13.3a45.35,45.35,0,0,0,9.3.7,14.82,14.82,0,0,0,7.3-2.1c-1.2-2-1.5-4.6-.8-7.8a14.32,14.32,0,0,1,14.4-12A13.37,13.37,0,0,1,251.5,22Z" transform="translate(-41.4 -18)"/><path class="cls-1" d="M56.8,49A14.45,14.45,0,0,1,46,44.4a15,15,0,0,1-4.6-10.8,14.73,14.73,0,0,1,4.6-11A15,15,0,0,1,56.8,18a14.73,14.73,0,0,1,11,4.6,15.11,15.11,0,0,1,4.6,11,14.45,14.45,0,0,1-4.6,10.8A14.88,14.88,0,0,1,56.8,49Z" transform="translate(-41.4 -18)"/><polyline class="cls-1" points="1.4 123.6 4.8 128.2 10 135.1 15.2 142.1 29.5 142.1 29.5 50.4 1.4 50.4 1.4 123.6"/></svg>