<?xml version="1.0" encoding="utf-8"?>
<!-- Generator: Adobe Illustrator 22.1.0, SVG Export Plug-In . SVG Version: 6.00 Build 0)  -->
<svg version="1.1" id="Layer_1" xmlns="http://www.w3.org/2000/svg"  x="0px" y="0px"
	 viewBox="0 0 42.5 42.5" style="enable-background:new 0 0 42.5 42.5;" xml:space="preserve">
<path d="M39.3,1H3.2C2,1,1,2,1,3.2v36.1c0,1.2,1,2.3,2.3,2.3h19.4V25.9h-5.3v-6.1h5.3v-4.5c0-5.2,3.2-8.1,7.9-8.1
	c1.6,0,3.2,0.1,4.7,0.2v5.5H32c-2.5,0-3,1.2-3,3v3.9h6.1l-0.8,6.1H29v15.7h10.3c1.2,0,2.3-1,2.3-2.3V3.2C41.5,2,40.5,1,39.3,1z"/>
</svg>
