<?xml version="1.0" encoding="utf-8"?>
<!-- Generator: Adobe Illustrator 22.1.0, SVG Export Plug-In . SVG Version: 6.00 Build 0)  -->
<svg version="1.1" id="Layer_1" xmlns="http://www.w3.org/2000/svg"  x="0px" y="0px"
	 viewBox="0 0 42.5 42.5" style="enable-background:new 0 0 42.5 42.5;" xml:space="preserve">
<path d="M12.8,19.6v4.1h6.7c-0.3,1.7-2,5.1-6.7,5.1c-4,0-7.3-3.3-7.3-7.5c0-4.1,3.3-7.5,7.3-7.5c2.3,0,3.8,1,4.7,1.8l3.2-3.1
	c-2.1-1.9-4.7-3.1-7.9-3.1C6.3,9.4,1,14.7,1,21.3s5.3,11.8,11.8,11.8c6.8,0,11.4-4.8,11.4-11.6c0-0.8-0.1-1.4-0.2-2H12.8z
	 M41.5,22.9h-5.1V28h-3.4v-5.1H28v-3.4h5.1v-5.1h3.4v5.1h5.1V22.9"/>
</svg>
