<?xml version="1.0" encoding="utf-8"?>
<!-- Generator: Adobe Illustrator 22.1.0, SVG Export Plug-In . SVG Version: 6.00 Build 0)  -->
<svg version="1.1" id="Layer_1" xmlns="http://www.w3.org/2000/svg"  x="0px" y="0px"
	 viewBox="0 0 42.5 42.5" style="enable-background:new 0 0 42.5 42.5;" xml:space="preserve">
<path d="M33.7,25.2c-1.7,0-3.3,0.7-4.5,1.8l-14-5.8l14-5.8c1.2,1.1,2.7,1.8,4.5,1.8c3.5,0,6.4-2.9,6.4-6.4s-2.9-6.4-6.4-6.4
	c-3.5,0-6.3,2.8-6.4,6.3l-14.1,5.8c-1.2-1.1-2.7-1.8-4.5-1.8c-3.5,0-6.4,2.9-6.4,6.4s2.9,6.4,6.4,6.4c1.7,0,3.3-0.7,4.5-1.8
	l14.1,5.8c0,3.5,2.9,6.3,6.4,6.3c3.5,0,6.4-2.9,6.4-6.4S37.3,25.2,33.7,25.2z M33.7,9.6c0.8,0,1.4,0.6,1.4,1.4s-0.6,1.4-1.4,1.4
	s-1.4-0.6-1.4-1.4S33,9.6,33.7,9.6z M8.8,22.6c-0.8,0-1.4-0.6-1.4-1.4c0-0.8,0.6-1.4,1.4-1.4s1.4,0.6,1.4,1.4
	C10.1,22,9.5,22.6,8.8,22.6z M33.7,32.9c-0.8,0-1.4-0.6-1.4-1.4s0.6-1.4,1.4-1.4s1.4,0.6,1.4,1.4S34.5,32.9,33.7,32.9z"/>
</svg>
