<?xml version="1.0" encoding="utf-8"?>
<!-- Generator: Adobe Illustrator 22.1.0, SVG Export Plug-In . SVG Version: 6.00 Build 0)  -->
<svg version="1.1" id="Layer_1" xmlns="http://www.w3.org/2000/svg"  x="0px" y="0px"
	 viewBox="0 0 42.5 42.5" style="enable-background:new 0 0 42.5 42.5;" xml:space="preserve">
<g>
	<path d="M41,4.1c0.9,0.9,1.2,1.9,1.2,3.2c-0.1,1.3-0.7,2.4-1.7,3.5c-1.4,1.4-3.3,2.3-5.8,2.7C32.3,14,30,13.8,27.8,13l1.4-3.8
		c1,0.2,1.9,0.2,2.7,0.2c0.8,0,1.5-0.2,2.1-0.6c-0.3-0.6-0.4-1.3-0.2-2.3C34,5.6,34.4,4.8,35,4.2C35.7,3.4,36.7,3,38,3
		C39.2,3,40.2,3.3,41,4.1z"/>
	<path d="M19.9,39.5c-9.7,0-17.6-7.9-17.6-17.6h5c0,6.9,5.6,12.6,12.6,12.6s12.6-5.7,12.6-12.6h5C37.5,31.6,29.6,39.5,19.9,39.5z"/>
	<path d="M4.8,12.9c-1.2,0-2.3-0.4-3.1-1.3c-0.9-0.9-1.3-1.9-1.3-3.1c0-1.2,0.4-2.3,1.3-3.2c0.9-0.9,1.9-1.3,3.1-1.3
		C6,3.9,7.1,4.3,8,5.2c0.9,0.9,1.3,1.9,1.3,3.2c0,1.2-0.4,2.3-1.3,3.1C7.1,12.4,6,12.9,4.8,12.9z"/>
</g>
</svg>
